<svg width="16" height="16" viewBox="0 0 16 16" fill="none" xmlns="http://www.w3.org/2000/svg">
<path fill-rule="evenodd" clip-rule="evenodd" d="M8.66654 8.66671C8.66654 9.03471 8.36788 9.33337 7.99988 9.33337C7.63188 9.33337 7.33321 9.03471 7.33321 8.66671V6.00004C7.33321 5.63204 7.63188 5.33337 7.99988 5.33337C8.36788 5.33337 8.66654 5.63204 8.66654 6.00004V8.66671ZM7.99988 11.3334C7.63188 11.3334 7.33321 11.0347 7.33321 10.6667C7.33321 10.2987 7.63188 10 7.99988 10C8.36788 10 8.66654 10.2987 8.66654 10.6667C8.66654 11.0347 8.36788 11.3334 7.99988 11.3334ZM15.0405 10.8687L9.92588 2.38937C9.52654 1.72804 8.80654 1.33337 7.99988 1.33337C7.19321 1.33337 6.47321 1.72804 6.07387 2.38937L0.959209 10.8687C0.580542 11.4974 0.569209 12.2534 0.929209 12.8907C1.31521 13.5754 2.06521 14 2.88521 14H13.1145C13.9345 14 14.6845 13.5754 15.0705 12.8907C15.4305 12.2534 15.4192 11.4974 15.0405 10.8687Z" fill="#F43C3C"/>
</svg>
