<svg width="20" height="20" viewBox="0 0 20 20" fill="none" xmlns="http://www.w3.org/2000/svg">
<path d="M9.11649 5.06662C9.4088 5.02181 9.70411 4.99952 9.99983 4.99995C12.6498 4.99995 15.1415 6.90828 16.5915 9.99995C16.3697 10.4704 16.1193 10.9269 15.8415 11.3666C15.7533 11.5031 15.707 11.6624 15.7082 11.825C15.71 12.0068 15.7713 12.1831 15.8827 12.3268C15.9941 12.4706 16.1495 12.574 16.3251 12.6212C16.5008 12.6684 16.687 12.6569 16.8555 12.5883C17.024 12.5198 17.1654 12.398 17.2582 12.2416C17.6464 11.6316 17.9837 10.9905 18.2665 10.325C18.3112 10.221 18.3343 10.109 18.3343 9.99578C18.3343 9.8826 18.3112 9.7706 18.2665 9.66662C16.5832 5.75828 13.4165 3.33328 9.99983 3.33328C9.60872 3.33131 9.21823 3.36478 8.83316 3.43328C8.72373 3.45189 8.61903 3.49186 8.52504 3.55093C8.43106 3.61 8.34963 3.687 8.2854 3.77754C8.22117 3.86807 8.17541 3.97037 8.15072 4.0786C8.12602 4.18682 8.12289 4.29885 8.1415 4.40828C8.1601 4.51772 8.20008 4.62242 8.25914 4.7164C8.31821 4.81039 8.39521 4.89182 8.48575 4.95605C8.57628 5.02027 8.67858 5.06604 8.78681 5.09073C8.89503 5.11542 9.00706 5.11855 9.11649 5.09995V5.06662ZM3.0915 1.90828C3.0138 1.83059 2.92155 1.76895 2.82004 1.7269C2.71852 1.68485 2.60971 1.66321 2.49983 1.66321C2.38995 1.66321 2.28114 1.68485 2.17962 1.7269C2.0781 1.76895 1.98586 1.83059 1.90816 1.90828C1.75124 2.0652 1.66309 2.27803 1.66309 2.49995C1.66309 2.72187 1.75124 2.9347 1.90816 3.09162L4.4915 5.66662C3.31281 6.80122 2.37471 8.16161 1.73316 9.66662C1.68728 9.77176 1.66359 9.88523 1.66359 9.99995C1.66359 10.1147 1.68728 10.2281 1.73316 10.3333C3.4165 14.2416 6.58316 16.6666 9.99983 16.6666C11.4974 16.6563 12.9596 16.2104 14.2082 15.3833L16.9082 18.0916C16.9856 18.1697 17.0778 18.2317 17.1793 18.274C17.2809 18.3163 17.3898 18.3381 17.4998 18.3381C17.6098 18.3381 17.7188 18.3163 17.8203 18.274C17.9219 18.2317 18.014 18.1697 18.0915 18.0916C18.1696 18.0141 18.2316 17.922 18.2739 17.8204C18.3162 17.7189 18.338 17.61 18.338 17.5C18.338 17.3899 18.3162 17.281 18.2739 17.1795C18.2316 17.0779 18.1696 16.9858 18.0915 16.9083L3.0915 1.90828ZM8.39149 9.56662L10.4332 11.6083C10.2923 11.6487 10.1463 11.6683 9.99983 11.6666C9.5578 11.6666 9.13388 11.491 8.82132 11.1785C8.50876 10.8659 8.33316 10.442 8.33316 9.99995C8.33146 9.85344 8.35111 9.70746 8.39149 9.56662ZM9.99983 15C7.34983 15 4.85816 13.0916 3.4165 9.99995C3.9549 8.81141 4.71906 7.73877 5.6665 6.84162L7.1415 8.33328C6.79503 8.96561 6.66295 9.69324 6.76504 10.407C6.86714 11.1208 7.19793 11.7822 7.70777 12.292C8.21761 12.8019 8.87902 13.1326 9.59278 13.2347C10.3065 13.3368 11.0342 13.2047 11.6665 12.8583L12.9915 14.1666C12.0841 14.7007 11.0527 14.988 9.99983 15Z" fill="#959595"/>
</svg>
